<?xml version="1.0" encoding="utf-8"?>
<!-- Generator: Adobe Illustrator 21.1.0, SVG Export Plug-In . SVG Version: 6.00 Build 0)  -->
<svg version="1.1" id="Layer_1" xmlns="http://www.w3.org/2000/svg" xmlns:xlink="http://www.w3.org/1999/xlink" x="0px" y="0px"
	 viewBox="0 0 25 25" style="enable-background:new 0 0 25 25;" xml:space="preserve">
<style type="text/css">
	.st0{fill:#FFFFFF;}
</style>
<g>
	<path class="st0" d="M-92.9,1.6c-0.1-0.1-0.1-0.2,0-0.3c0.2-0.2,0.4-0.3,0.7-0.2c0.3,0,0.5,0.1,0.5,0.1c0.3,0.1,0.7,0.5,1.1,1
		c0.4,0.5,0.7,0.9,1,1c1.2,1,2.3,1,3.5,0.2c0.1-0.3,0.3-0.6,0.5-0.9c0.2-0.2,0.4-0.4,0.6-0.5c0.2-0.1,0.5-0.2,1-0.4
		c-1.6-0.1-2.9-0.4-3.9-0.8s-1.8-0.9-2.3-1.5c-0.8-0.9-1.2-2-1.4-3.4c-0.2-1.4-0.1-2.7,0.3-3.8c0.3-0.7,0.7-1.4,1.2-1.9
		c-0.4-1.2-0.3-2.6,0.2-4.1c1.5,0.1,2.9,0.6,4.2,1.6c2.4-0.6,4.9-0.6,7.5-0.1c0.3-0.2,0.9-0.5,1.5-0.9c0.7-0.4,1.6-0.6,2.6-0.6
		c0.2,0.5,0.3,1.2,0.4,1.9s0,1.4-0.1,2c1.1,1.2,1.7,2.7,1.7,4.6c0,1.5-0.3,2.8-0.8,3.8c-0.5,1-1.5,1.8-2.8,2.5
		c-0.9,0.4-2.1,0.7-3.6,0.8c0.7,0.3,1.2,0.7,1.5,1c0.3,0.4,0.5,0.9,0.6,1.7v2.3l0.1,2.2c0.1,0.2,0.3,0.4,0.5,0.6
		c0.2,0.2,0.4,0.3,0.5,0.4c0.1,0.1,0.2,0.2,0.1,0.3c0,0.1-0.2,0.2-0.6,0.2c-0.8,0-1.5-0.3-1.9-0.9c-0.1-0.2-0.2-0.5-0.2-0.9V5.2
		c0-0.4-0.1-0.7-0.3-0.8c-0.2-0.2-0.4-0.3-0.6-0.3v4.5c0,0.8,0.1,1.3,0.3,1.6s0.3,0.5,0.4,0.7c0,0,0,0.1-0.1,0.1
		c-0.1,0-0.3,0-0.6-0.1c-0.6-0.1-1.1-0.5-1.3-1c-0.2-0.5-0.4-1-0.4-1.6V3.8h-0.9v4.5c0,0.6-0.1,1.1-0.4,1.7c-0.3,0.7-1,1-1.9,1.1
		c-0.1,0-0.2-0.1-0.2-0.1c0,0,0.2-0.3,0.4-0.7c0-0.1,0.1-0.3,0.2-0.6c0.1-0.3,0.1-0.6,0.1-1V4.1c-0.2,0-0.4,0.2-0.5,0.3
		c-0.2,0.2-0.3,0.4-0.3,0.8v3.5c0,0.3-0.1,0.6-0.2,0.9c-0.4,0.6-1.1,0.9-1.9,0.9c-0.3,0-0.5-0.1-0.6-0.2c0-0.1,0-0.2,0-0.3
		c0.1-0.1,0.2-0.2,0.3-0.3c0.1-0.1,0.2-0.2,0.3-0.2c0.2-0.1,0.3-0.3,0.4-0.6c0.1-0.2,0.2-0.7,0.1-1.5s-0.1-1.3,0-1.6
		C-87.4,6.2-88.7,6-90,5.1c-0.4-0.4-0.8-0.9-1.2-1.7C-91.4,3-92,2.3-92.9,1.6L-92.9,1.6z"/>
</g>
<g id="nSrzwl_1_">
	<g>
		<path class="st0" d="M14.8,18.3c0.8,0.9,0.8,2,0.8,3.2c0,0.8,0,1.6,0,2.4c0,0.6,0.4,0.9,0.9,0.7c0.4-0.1,0.8-0.3,1.2-0.5
			c5.7-2.6,8.5-9.1,6.6-15c-1.8-5.5-7.2-9-13.1-8.5C5.5,1,0.6,5.6,0.1,11.4c-0.5,5,1.5,9,5.7,11.8c0.8,0.5,1.8,0.9,2.7,1.3
			c0.5,0.2,0.9,0,1-0.4c0-0.8,0-1.6,0-2.3c-0.6,0-1.2,0-1.7,0c-1.2-0.1-2.1-0.6-2.6-1.8c-0.3-0.7-0.7-1.2-1.3-1.6
			c-0.2-0.1-0.5-0.5-0.5-0.6c0.2-0.3,0.5-0.2,0.8-0.2c0.7,0.2,1.2,0.6,1.6,1.3c0.8,1.2,2,1.6,3.3,1.1c0.1,0,0.2-0.1,0.3-0.2
			c0.2-0.5,0.4-1,0.6-1.6c-0.2,0-0.4-0.1-0.7-0.1c-2.8-0.5-4.4-2-4.7-4.7c-0.2-1.6-0.1-3.2,1.1-4.5c0.1-0.1,0.1-0.2,0-0.3
			c-0.2-0.8-0.2-1.7,0-2.5c0.2-0.6,0.2-0.7,0.8-0.5c0.2,0,0.4,0.1,0.6,0.2C7.9,6,8.5,6.3,9.1,6.6c0.2,0.1,0.4,0.1,0.6,0.1
			c1.6-0.4,3.2-0.5,4.8-0.1c0.9,0.2,1.5,0.1,2.3-0.4c0.6-0.4,1.3-0.6,2.1-0.7c0.2,0,0.3,0.1,0.4,0.3c0.3,0.9,0.4,1.8,0.1,2.8
			c0,0.1,0,0.3,0.1,0.5c0.2,0.3,0.4,0.6,0.6,0.9c0.6,1.1,0.6,2.3,0.4,3.5c-0.3,2.4-1.6,3.9-3.9,4.5C16,18.1,15.4,18.2,14.8,18.3z
			 M6.5,20.1c-0.2-0.1-0.2-0.2-0.4-0.3c0,0-0.1,0.1-0.2,0.1c0.1,0.1,0.2,0.2,0.3,0.3C6.3,20.2,6.4,20.1,6.5,20.1z M7.1,20.1
			c-0.2,0.2-0.3,0.2-0.3,0.3c0.1,0.1,0.2,0.2,0.3,0.2c0,0,0.2-0.1,0.2-0.1C7.3,20.4,7.2,20.3,7.1,20.1z M8.3,20.8c0-0.1,0-0.1,0-0.2
			c-0.2,0-0.3,0-0.5,0c0,0.1,0,0.2,0,0.2C8,20.8,8.2,20.8,8.3,20.8z M9.4,20.5c-0.2-0.1-0.2-0.2-0.3-0.2c-0.1,0-0.2,0.1-0.3,0.2
			c0.1,0.1,0.1,0.2,0.2,0.2C9.1,20.7,9.2,20.6,9.4,20.5z"/>
		<path class="st0" d="M14.8,18.3c0.6-0.1,1.2-0.2,1.7-0.4c2.3-0.6,3.6-2.1,3.9-4.5c0.1-1.2,0.2-2.4-0.4-3.5
			c-0.2-0.3-0.4-0.6-0.6-0.9c-0.1-0.1-0.1-0.3-0.1-0.5c0.2-0.9,0.2-1.9-0.1-2.8c-0.1-0.2-0.2-0.3-0.4-0.3c-0.8,0-1.5,0.3-2.1,0.7
			c-0.7,0.5-1.4,0.6-2.3,0.4c-1.6-0.3-3.2-0.2-4.8,0.1c-0.2,0-0.4,0-0.6-0.1C8.5,6.3,7.9,6,7.2,5.7C7,5.6,6.8,5.6,6.6,5.5
			C5.9,5.4,5.9,5.5,5.7,6.1c-0.2,0.8-0.3,1.7,0,2.5c0,0.1,0,0.3,0,0.3c-1.1,1.3-1.3,2.9-1.1,4.5c0.4,2.7,1.9,4.2,4.7,4.7
			c0.3,0,0.5,0.1,0.7,0.1c-0.2,0.5-0.4,1-0.6,1.6c0,0.1-0.2,0.2-0.3,0.2c-1.4,0.5-2.6,0.1-3.3-1.1c-0.4-0.6-0.9-1.1-1.6-1.3
			c-0.3-0.1-0.7-0.2-0.8,0.2c0,0.1,0.3,0.4,0.5,0.6c0.6,0.4,1,1,1.3,1.6c0.5,1.2,1.4,1.7,2.6,1.8c0.5,0,1.1,0,1.7,0
			c0,0.7,0,1.5,0,2.3c0,0.4-0.5,0.6-1,0.4c-0.9-0.4-1.9-0.7-2.7-1.3c-4.2-2.8-6.2-6.8-5.7-11.8C0.6,5.6,5.5,1,11.3,0.5
			c6-0.5,11.4,3,13.1,8.5c1.9,6-0.9,12.4-6.6,15c-0.4,0.2-0.8,0.4-1.2,0.5c-0.6,0.2-0.9-0.1-0.9-0.7c0-0.8,0-1.6,0-2.4
			C15.6,20.3,15.7,19.2,14.8,18.3z"/>
		<path class="st0" d="M6.5,20.1c-0.1,0.1-0.2,0.1-0.3,0.1C6.1,20.1,6.1,20,6,19.9c0.1,0,0.1-0.1,0.2-0.1
			C6.3,19.8,6.4,19.9,6.5,20.1z"/>
		<path class="st0" d="M7.1,20.1c0.1,0.1,0.1,0.3,0.2,0.4c0,0-0.1,0.2-0.2,0.1c-0.1,0-0.2-0.1-0.3-0.2C6.9,20.4,6.9,20.3,7.1,20.1z"
			/>
		<path class="st0" d="M8.3,20.8c-0.1,0-0.3,0-0.4,0c0,0,0-0.1,0-0.2c0.2,0,0.3,0,0.5,0C8.3,20.6,8.3,20.7,8.3,20.8z"/>
		<path class="st0" d="M9.4,20.5c-0.2,0.1-0.3,0.2-0.4,0.2c-0.1,0-0.1-0.1-0.2-0.2c0.1-0.1,0.2-0.1,0.3-0.2
			C9.2,20.3,9.2,20.4,9.4,20.5z"/>
	</g>
</g>
<g id="di1Krj_1_">
	<g>
		<path class="st0" d="M-11.9,9.2c0.6-0.1,1.1-0.2,1.6-0.3c1.5-0.4,2.7-1.1,3.4-2.6c0.7-1.5,0.9-3,0.5-4.6c-0.2-0.7-0.5-1.3-1-1.9
			c-0.1-0.1-0.1-0.2-0.1-0.4c0.3-1,0.2-1.9-0.1-2.9c-0.1-0.2-0.2-0.2-0.3-0.2c-0.6,0-1.2,0.2-1.7,0.5c-0.4,0.2-0.9,0.5-1.3,0.7
			c-0.1,0.1-0.3,0.1-0.4,0.1c-1.9-0.5-3.9-0.5-5.8,0c-0.1,0-0.3,0-0.4-0.1c-0.8-0.5-1.7-1-2.6-1.1c-0.6-0.1-0.6-0.1-0.8,0.5
			c-0.2,0.9-0.3,1.8,0,2.6c0,0.1,0,0.2,0,0.3c-1.1,1.3-1.3,2.8-1.1,4.4c0.1,0.5,0.2,0.9,0.3,1.4c0.6,1.8,1.9,2.8,3.7,3.3
			c0.5,0.1,1,0.2,1.6,0.3c-0.4,0.4-0.6,1-0.7,1.5c0,0.1-0.1,0.1-0.2,0.2c-1.3,0.5-2.6,0.3-3.4-1c-0.4-0.7-0.9-1.2-1.7-1.3
			c-0.2,0-0.4,0-0.6,0c-0.2,0-0.3,0.2-0.1,0.4c0.1,0.1,0.2,0.2,0.3,0.3c0.7,0.4,1.1,1,1.4,1.7c0.5,1.2,1.4,1.7,2.6,1.8
			c0.6,0,1.1,0,1.7-0.1c0,0.8,0,1.6,0,2.3c0,0.4-0.4,0.6-0.9,0.5c-1.1-0.3-2.1-0.8-3-1.5C-25,11.3-27,7.6-26.7,3
			c0.3-5.7,4.4-10.4,10.1-11.5c6.5-1.3,12.8,2.7,14.5,9.1c1.6,6.2-1.9,12.8-8,14.8c-0.6,0.2-1-0.1-1-0.7c0-1,0-2,0-3
			C-11.1,10.8-11.3,9.9-11.9,9.2z"/>
		<path class="st0" d="M-18.7,11.3c0.1,0.1,0.2,0.2,0.3,0.3c-0.1,0.1-0.2,0.2-0.3,0.2c-0.1,0-0.2-0.1-0.2-0.2
			C-18.9,11.5-18.8,11.4-18.7,11.3z"/>
		<path class="st0" d="M-20.5,11.2c-0.1-0.2-0.2-0.3-0.3-0.4c0,0,0.1-0.1,0.2-0.1c0.1,0.1,0.2,0.2,0.3,0.3
			C-20.3,11-20.4,11-20.5,11.2z"/>
		<path class="st0" d="M-19.7,11.6c-0.1-0.1-0.2-0.2-0.3-0.3c0.1,0,0.2-0.2,0.2-0.1c0.1,0,0.2,0.1,0.3,0.2
			C-19.5,11.5-19.6,11.5-19.7,11.6z"/>
		<path class="st0" d="M-17.7,11.2c0.1,0.1,0.2,0.2,0.2,0.2c-0.1,0.1-0.2,0.2-0.3,0.2c-0.1,0-0.1-0.1-0.2-0.1
			C-17.9,11.4-17.8,11.3-17.7,11.2z"/>
		<path class="st0" d="M-20.9,10.2c-0.1,0.1-0.2,0.2-0.2,0.2c-0.1-0.1-0.2-0.1-0.2-0.2c0,0,0.1-0.1,0.1-0.2
			C-21.1,10-21,10.1-20.9,10.2z"/>
		<path class="st0" d="M-21.6,9.7c-0.1-0.1-0.2-0.2-0.2-0.3c0,0,0.1-0.1,0.1-0.2c0.1,0.1,0.2,0.1,0.2,0.2
			C-21.5,9.5-21.6,9.6-21.6,9.7z"/>
	</g>
</g>
</svg>
