<?xml version="1.0" encoding="utf-8"?>
<!-- Generator: Adobe Illustrator 21.0.0, SVG Export Plug-In . SVG Version: 6.00 Build 0)  -->
<!DOCTYPE svg PUBLIC "-//W3C//DTD SVG 1.1//EN" "http://www.w3.org/Graphics/SVG/1.1/DTD/svg11.dtd">
<svg version="1.1" id="Layer_1" xmlns="http://www.w3.org/2000/svg" xmlns:xlink="http://www.w3.org/1999/xlink" x="0px" y="0px"
	 viewBox="0 0 420.8 407.1" style="enable-background:new 0 0 420.8 407.1;" xml:space="preserve">
<style type="text/css">
	.st0{fill:#FFFFFF;}
</style>
<g id="di1Krj_1_">
	<g>
		<path class="st0" d="M249.2,301.2c9.3-1.8,17.8-3.1,26.2-5.2c25.1-6.3,46.1-18.7,57.8-42.9c11.8-24.5,14.4-50.4,8.6-77
			c-2.6-11.7-8.4-22.1-16.2-31.2c-1.8-2.1-2.5-3.7-1.6-6.6c5.1-16.4,3.6-32.5-2-48.5c-1-2.9-2.6-3.8-5.5-3.8
			c-10,0.2-19.4,3.3-28.2,7.6c-7.5,3.6-14.5,8.1-21.9,11.9c-2.1,1.1-5,1.8-7.2,1.3c-32.7-7.9-65.3-7.9-98,0c-2.1,0.5-4.9,0-6.8-1.2
			c-13.8-8.5-27.8-16.4-44.1-19.2c-9.8-1.7-10.8-1.2-13.4,8.1c-4.2,14.7-4.9,29.5-0.4,44.3c0.4,1.4,0.1,3.7-0.8,4.8
			c-18.8,21.8-22.3,47.4-18.5,74.6c1.1,7.7,2.7,15.4,5.1,22.8c10,30.4,32.3,47.1,62.3,54.7c8.5,2.2,17.2,3.5,26.3,5.4
			c-6.9,7.4-10.5,16-12.3,25.4c-0.2,1.2-1.6,2.5-2.7,3c-21.8,8.5-43.8,5.8-57.9-17.1c-6.8-11.1-15.7-19.5-28.9-22.1
			c-3.3-0.7-7-0.4-10.3,0.3c-3.8,0.8-4.4,3.2-1.8,6.2c1.5,1.7,3.3,3.4,5.2,4.6c11.3,6.7,18.5,16.8,23.3,28.6
			c8,19.7,23.4,28.4,43.5,29.7c9.4,0.6,18.8-0.7,28.8-1.1c0,12.8,0.3,26.2-0.1,39.4c-0.2,7-7.3,10.4-15.2,7.9
			c-17.8-5.8-34.7-13.8-50-24.6C28.9,336.8-3.3,275.4,0.3,197.7C4.7,101.1,75,22.4,170.5,3.9c108.8-21.1,215.4,45.8,243.6,152.9
			c27.5,104.5-32.6,215.4-135.2,249.2c-10.2,3.4-16.3-1-16.3-11.6c0-17,0-34,0.2-51C262.9,328,260.6,313.4,249.2,301.2z"/>
		<path class="st0" d="M135.9,336.5c2,1.9,3.2,3.1,4.5,4.3c-1.5,1-3,2.7-4.6,2.8c-1.3,0.1-2.7-1.7-4.1-2.7
			C132.9,339.7,134.1,338.4,135.9,336.5z"/>
		<path class="st0" d="M105.3,334.9c-2.1-2.8-3.5-4.6-4.5-6.5c-0.1-0.2,2.4-2.4,2.6-2.2c1.7,1.2,3.3,2.7,4.5,4.4
			C108.2,331,106.8,332.6,105.3,334.9z"/>
		<path class="st0" d="M119.1,342.3c-1.8-1.9-3.1-3.4-4.4-4.8c1.2-0.8,2.8-2.6,3.6-2.3c1.8,0.7,3.3,2.4,4.9,3.8
			C122.1,339.9,120.9,340.8,119.1,342.3z"/>
		<path class="st0" d="M152.2,334.5c1.9,1.7,3.1,2.8,4.2,3.9c-1.6,1.2-3.1,2.8-4.9,3.3c-1,0.3-2.5-1.5-3.8-2.3
			C149.1,338,150.4,336.6,152.2,334.5z"/>
		<path class="st0" d="M98.3,318.3c-1.6,1.4-3,2.9-3.2,2.8c-1.6-1.1-3.1-2.5-4.2-4c-0.2-0.3,1.4-1.9,2.1-2.9
			C94.6,315.3,96.1,316.5,98.3,318.3z"/>
		<path class="st0" d="M86.5,310.5c-1.7-2-3-3.1-3.7-4.5c-0.2-0.5,0.9-1.7,1.5-2.6c1.4,1.2,2.9,2.3,4.1,3.7
			C88.6,307.4,87.5,308.7,86.5,310.5z"/>
	</g>
</g>
</svg>
