<?xml version="1.0" encoding="utf-8"?>
<!-- Generator: Adobe Illustrator 20.1.0, SVG Export Plug-In . SVG Version: 6.00 Build 0)  -->
<!DOCTYPE svg PUBLIC "-//W3C//DTD SVG 1.1//EN" "http://www.w3.org/Graphics/SVG/1.1/DTD/svg11.dtd">
<svg version="1.1" id="Layer_1" xmlns="http://www.w3.org/2000/svg" xmlns:xlink="http://www.w3.org/1999/xlink" viewBox="-2480 0 3455 150" xml:space="preserve">
<style type="text/css">
	.st0{fill:#414042;}
	.st1{fill:none;stroke:#A7A9AC;stroke-width:6;stroke-miterlimit:10;}
	.st2{fill:url(#SVGID_1_);}
	.st3{fill:url(#SVGID_2_);}
	.st4{fill:url(#SVGID_3_);}
	.st5{
		fill:#FFFFFF;
		font-family:"Source Sans Pro", sans-serif;
		font-size:7.0em;
		cursor:default;
		text-anchor:end;
	}
	.linkclick {
		cursor: pointer;
	}
</style>
<text class='st5' x="-50" y="150" dy="-0.3em">This interactive data visualization was created by</text>
<g id="vizgroup">
<g transform="translate(700,-65),scale(0.9)">
	<polyline class="st1" points="99.4,203.7 184.9,123.7 270.4,203.7 " id="bindings"/>
	<radialGradient id="SVGID_1_" cx="184.875" cy="123.7328" r="49" gradientUnits="userSpaceOnUse">
		<stop  offset="0" style="stop-color:#ED1C24"/>
		<stop  offset="0.3136" style="stop-color:#E51D25"/>
		<stop  offset="0.6604" style="stop-color:#D41D28"/>
		<stop  offset="1" style="stop-color:#BE1E2D"/>
	</radialGradient>
	<circle class="st2" cx="184.9" cy="123.7" r="49" id="hydrogen"/>
	<radialGradient id="SVGID_2_" cx="270.375" cy="203.7328" r="29.7589" gradientUnits="userSpaceOnUse">
		<stop  offset="0" style="stop-color:#FFFFFF"/>
		<stop  offset="0.3909" style="stop-color:#F9F9F9"/>
		<stop  offset="0.8232" style="stop-color:#EDEDEE"/>
		<stop  offset="1" style="stop-color:#E6E7E8"/>
	</radialGradient>
	<circle class="st3" cx="270.4" cy="203.7" r="34" id="oxygen1"/>
	<radialGradient id="SVGID_3_" cx="99.375" cy="203.7328" r="34" gradientUnits="userSpaceOnUse">
		<stop  offset="0" style="stop-color:#FFFFFF"/>
		<stop  offset="0.3909" style="stop-color:#F9F9F9"/>
		<stop  offset="0.8232" style="stop-color:#EDEDEE"/>
		<stop  offset="1" style="stop-color:#E6E7E8"/>
	</radialGradient>
	<circle class="st4" cx="99.4" cy="203.7" r="34" id="oxygen1"/>
</g>
<g id="vizlab-text" transform="translate(145,-530),scale(2)">
	<path class="st5" d="M85,280.4h10.7l7.6,35.7h0.1l8.6-35.7h10.1l-13,49.1h-12L85,280.4z"/>
	<path class="st5" d="M126.7,329.4v-49.1H137v49.1H126.7z"/>
	<path class="st5" d="M143.8,280.4h29.6v8.9l-20.7,32.6h21.1v7.5h-31v-9l20.6-32.6h-19.6V280.4z"/>
	<path class="st5" d="M179.7,329.4v-49.1h10.3v40.9h15.4v8.2H179.7z"/>
	<path class="st5" d="M206.1,329.4l13.6-49.1h13.5l13.3,49.1h-10.8l-2.7-10.9h-14l-2.8,10.9H206.1z M225.8,289.8h-0.1L221,311h9.8
		L225.8,289.8z"/>
	<path class="st5" d="M251.5,329.4v-49.1h18.2c7.8,0,14.3,2.2,14.3,12.7c0,5.6-2.8,9.7-8.4,10.8v0.1c7.3,1,9.2,5.7,9.2,12.4
		c0,12.4-10.8,13-15.2,13H251.5z M261.7,300.4h6.9c2.2,0,5.4-1.5,5.4-6.3c0-3.6-2.4-6.3-5.9-6.3h-6.3V300.4z M261.7,321.9h5.7
		c2.2,0,7.1-0.1,7.1-6.9c0-4.4-1.6-7-6.8-7h-6V321.9z"/>
</g>
<path d="m234.95 15.44v85.037c0 17.938-10.132 36.871-40.691 36.871-27.569 0-40.859-14.281-40.859-36.871v-85.04h25.08v83.377c0 14.783 6.311 20.593 15.447 20.593 10.959 0 15.943-7.307 15.943-20.593v-83.377h25.08m40.79 121.91c-31.058 0-36.871-18.27-35.542-39.03h25.078c0 11.462 0.5 21.092 14.282 21.092 8.472 0 12.62-5.482 12.62-13.618 0-21.592-50.486-22.922-50.486-58.631 0-18.769 8.968-33.715 39.525-33.715 24.42 0 36.543 10.963 34.883 36.043h-24.419c0-8.974-1.492-18.106-11.627-18.106-8.136 0-12.953 4.486-12.953 12.787 0 22.757 50.493 20.763 50.493 58.465 0 31.06-22.75 34.72-41.85 34.72m168.6 0c-31.06 0-36.871-18.27-35.539-39.03h25.075c0 11.462 0.502 21.092 14.285 21.092 8.475 0 12.625-5.482 12.625-13.618 0-21.592-50.494-22.922-50.494-58.631 0-18.769 8.969-33.715 39.531-33.715 24.412 0 36.536 10.963 34.875 36.043h-24.412c0-8.974-1.494-18.106-11.625-18.106-8.144 0-12.955 4.486-12.955 12.787 0 22.757 50.486 20.763 50.486 58.465 0 31.06-22.75 34.72-41.85 34.72m-79.89-46.684h14.76v26.461l-1.229 0.454c-3.816 1.332-8.301 2.327-12.453 2.327-14.287 0-17.943-6.645-17.943-44.177 0-23.256 0-44.348 15.615-44.348 12.146 0 14.711 8.198 14.933 18.107h24.981c0.198-23.271-14.789-36.043-38.42-36.043-41.021 0-42.52 30.724-42.52 60.954 0 45.507 4.938 63.167 47.12 63.167 9.784 0 25.36-2.211 32.554-4.18 0.436-0.115 1.212-0.596 1.212-1.216v-59.598h-38.612v18.09" transform="translate(-124,18),scale(0.81)" class="st5"/>
</g>
  <rect onclick="window.open('https://github.com/USGS-VIZLAB','_blank')" opacity="0.0" width="100%" height="100%" class="linkclick"/>
</svg>
