<?xml version="1.0" encoding="utf-8"?>
<!-- Generator: Adobe Illustrator 22.0.1, SVG Export Plug-In . SVG Version: 6.00 Build 0)  -->
<svg version="1.1" id="Layer_1" xmlns="http://www.w3.org/2000/svg" xmlns:xlink="http://www.w3.org/1999/xlink" x="0px" y="0px"
	 viewBox="0 0 106 30" style="enable-background:new 0 0 106 30;" xml:space="preserve">
<style type="text/css">
	.st0{fill:#FFFFFF;}
</style>
<g>
	<g>
		<path class="st0" d="M49.3,1.6v19.2c0,4-2.3,8.3-9.2,8.3c-6.2,0-9.2-3.2-9.2-8.3V1.6h5.7v18.8c0,3.3,1.4,4.6,3.5,4.6
			c2.5,0,3.6-1.7,3.6-4.6V1.6H49.3z"/>
		<path class="st0" d="M58.5,29.1c-7,0-8.3-4.1-8-8.8h5.7c0,2.6,0.1,4.8,3.2,4.8c1.9,0,2.9-1.2,2.9-3.1c0-4.9-11.4-5.2-11.4-13.2
			c0-4.2,2-7.6,8.9-7.6c5.5,0,8.2,2.5,7.9,8.1h-5.5c0-2-0.3-4.1-2.6-4.1c-1.8,0-2.9,1-2.9,2.9c0,5.1,11.4,4.7,11.4,13.2
			C68,28.3,62.8,29.1,58.5,29.1z"/>
		<path class="st0" d="M96.6,29.1c-7,0-8.3-4.1-8-8.8h5.7c0,2.6,0.1,4.8,3.2,4.8c1.9,0,2.8-1.2,2.8-3.1c0-4.9-11.4-5.2-11.4-13.2
			c0-4.2,2-7.6,8.9-7.6c5.5,0,8.2,2.5,7.9,8.1h-5.5c0-2-0.3-4.1-2.6-4.1c-1.8,0-2.9,1-2.9,2.9c0,5.1,11.4,4.7,11.4,13.2
			C106,28.3,100.9,29.1,96.6,29.1z"/>
		<path class="st0" d="M78.5,18.5h3.3v6l-0.3,0.1c-0.9,0.3-1.9,0.5-2.8,0.5c-3.2,0-4-1.5-4-10c0-5.2,0-10,3.5-10
			c2.7,0,3.3,1.9,3.4,4.1h5.6c0-5.3-3.3-8.1-8.7-8.1c-9.3,0-9.6,6.9-9.6,13.8c0,10.3,1.1,14.3,10.6,14.3c2.2,0,5.7-0.5,7.3-0.9
			c0.1,0,0.3-0.1,0.3-0.3c0-0.7,0-13.5,0-13.5h-8.7V18.5z"/>
	</g>
	<path class="st0" d="M7.3,10.6L7.3,10.6c2.7,2.3,5.6,2.1,7.8,0.6c1.4-0.9,7.6-5,11.1-7.4V1.6H0v6.2C1.6,7.5,4.2,7.7,7.3,10.6z"/>
	<path class="st0" d="M17.1,20.9l-3.1-3c-0.4-0.4-0.8-0.7-0.9-0.7c-2.5-1.8-4.9-1.2-5.9-0.9c-0.3,0.1-0.6,0.3-0.8,0.4L0,21.1v7.8
		h26.2v-5.6C25.6,23.6,22.1,25.5,17.1,20.9z"/>
	<path class="st0" d="M7.1,11.3c-0.1-0.1-0.3-0.3-0.4-0.4C3.5,8.6,0.6,9.7,0,10v2.7l1.5-1c0,0,2.3-1.7,6,0L7.1,11.3z"/>
	<path class="st0" d="M10.7,14.8c-0.1-0.1-0.3-0.2-0.4-0.4c-2.7-2.3-5.4-1.7-6.5-1.3c-0.3,0.1-0.6,0.3-0.8,0.4l-0.3,0.2l0,0L0,15.5
		v2.8L4.9,15c0,0,2.3-1.7,5.9,0L10.7,14.8z"/>
	<path class="st0" d="M26.2,17.7c-1,0.7-2.1,1.4-2.5,1.7c-0.9,0.6-3.1,2.2-6.7,0.5l0.4,0.4c0.2,0.1,0.3,0.3,0.6,0.5
		c2.6,1.9,5.3,1.7,7.4,0.3c0.3-0.2,0.5-0.4,0.8-0.5V17.7z"/>
	<path class="st0" d="M26.2,12.2c-2.3,1.5-5.3,3.6-5.9,4c-0.9,0.6-3.1,2.2-6.6,0.5l0.4,0.4c0,0,0.1,0.1,0.1,0.1l0,0l0,0l0,0
		c2.7,2.3,5.7,2,7.8,0.6c1.2-0.8,2.8-1.9,4.2-2.8V12.2z"/>
	<path class="st0" d="M26.2,6.6c-3.3,2.2-8.6,5.8-9.3,6.2c-0.9,0.6-3.2,2.2-6.6,0.6l0.4,0.4c0.3,0.2,0.6,0.5,0.9,0.7
		c2.4,1.5,4.9,1.3,7-0.1c1.5-1,5.1-3.4,7.6-5V6.6z"/>
</g>
</svg>
